<?xml version="1.0" encoding="utf-8"?>
<!DOCTYPE svg PUBLIC "-//W3C//DTD SVG 1.0//EN" "http://www.w3.org/TR/2001/REC-SVG-20010904/DTD/svg10.dtd">
<svg version="1.0" xmlns="http://www.w3.org/2000/svg" width="168px" height="219px" viewBox="0 0 168 219" preserveAspectRatio="xMidYMid meet">
 <g fill="#0f3552">
  <path d="M75.6 199.9 c-19.7 -12.6 -39 -30.1 -47.8 -43.4 -10.4 -15.7 -17.4 -33.3 -20.2 -51.1 -1.6 -10.2 -2.3 -53.4 -1 -60.1 0.5 -2.8 1.2 -3.1 15.2 -7.7 8.1 -2.5 25.3 -8.5 38.2 -13.1 l23.5 -8.5 38.6 13.1 38.7 13.1 0.6 3.6 c1.3 7.8 0.6 47.3 -1 58 -3.8 25.5 -15.4 49.8 -32.8 68.1 -9.2 9.8 -29.9 25.7 -40.2 30.9 l-4.1 2.1 -7.7 -5z m14.2 -50.2 c3.8 -3.5 2.5 -9.4 -2.6 -12.1 -3.4 -1.8 -6.4 -0.6 -9.5 3.6 -1.8 2.4 -1.8 3 -0.7 5.8 1.5 3.6 5.6 6.2 8.5 5.3 1.1 -0.3 3 -1.5 4.3 -2.6z m-28.1 -22.9 c-0.2 -2.4 -0.4 -0.5 -0.4 4.2 0 4.7 0.2 6.6 0.4 4.3 0.2 -2.4 0.2 -6.2 0 -8.5z m27.4 -10.5 c0 -1 1.1 -16.9 2.3 -35.3 2.1 -30.1 2.2 -33.6 0.8 -34.7 -1.8 -1.5 -14 -1.7 -16.1 -0.4 -1.1 0.7 -1 5.7 0.8 31.7 1.2 17 2.4 33 2.7 35.7 l0.6 4.7 4.4 0 c3.5 0 4.4 -0.4 4.5 -1.7z m-60.4 -8.5 c-0.2 -1.8 -0.4 -0.6 -0.4 2.7 0 3.3 0.2 4.8 0.4 3.3 0.2 -1.5 0.2 -4.2 0 -6z m17 -21.5 c-0.2 -3.7 -0.3 -0.9 -0.3 6.2 0 7.2 0.1 10.2 0.3 6.8 0.2 -3.4 0.2 -9.3 0 -13z"/>
 </g>
 <g fill="#fefefd">
  <path d="M124.5 174 c3.8 -3.8 7.2 -7 7.4 -7 0.3 0 -2.6 3.2 -6.4 7 -3.8 3.9 -7.2 7 -7.4 7 -0.3 0 2.6 -3.1 6.4 -7z"/>
  <path d="M42 173.3 l-6.5 -6.8 6.8 6.5 c6.2 6 7.2 7 6.4 7 -0.1 0 -3.2 -3 -6.7 -6.7z"/>
  <path d="M49 166.5 l-2.4 -2.5 6.2 -6.3 6.2 -6.2 -0.7 -14.2 -0.6 -14.1 -7.9 -7.9 -7.8 -7.8 0 -11.6 0 -11.7 -4 -4 c-3.4 -3.4 -4 -4.6 -4 -8.2 0 -5.5 3 -9.6 8 -11.1 8.3 -2.5 16.6 5.8 14.1 14.2 -0.7 2.2 -2.4 4.8 -4.1 6.1 -3 2.2 -3 2.2 -3 12.8 l0 10.5 8 8 8 8 0 17.5 0 17.6 -6.8 6.7 -6.8 6.8 -2.4 -2.6z m-0.2 -90.7 c1.5 -1.5 1.5 -6.1 0 -7.6 -1.5 -1.5 -6.1 -1.5 -7.6 0 -1.7 1.7 -1.5 5.4 0.4 7.2 1.8 1.9 5.5 2.1 7.2 0.4z"/>
  <path d="M41.7 158.3 c-0.4 -0.3 -0.7 -3.9 -0.7 -7.9 0 -6.1 -0.3 -7.5 -1.9 -8.3 -2.4 -1.3 -4.5 -6.5 -3.8 -9.4 0.5 -1.8 -0.6 -3.6 -4.8 -8.4 -4.9 -5.5 -5.5 -6.6 -5.5 -10.6 0 -3.7 -0.6 -5.1 -3 -7.5 -2.4 -2.4 -3 -3.9 -3 -7.2 0 -5.6 3.4 -9 9 -9 8.3 0 12.1 9.2 6.5 15.8 -1.7 2.1 -2.5 4.2 -2.5 6.9 0 3.3 0.7 4.6 4.8 8.6 3.7 3.7 5.5 4.7 8 4.7 7.4 0 10.7 8.9 5.5 15 -2.2 2.7 -2.6 4 -2.4 8.2 0.2 4 -0.2 5.5 -2 7.4 -2.4 2.5 -3.1 2.8 -4.2 1.7z m5 -24.7 c-0.8 -2.1 -4.3 -2 -5.1 0.1 -1 2.6 2.3 4.8 4.2 2.9 0.8 -0.8 1.2 -2.2 0.9 -3z m-16.2 -34.6 c0 -1.8 -0.6 -2.6 -2.3 -2.8 -1.3 -0.2 -2.5 0.3 -2.8 1.2 -1 2.6 0.4 4.8 2.8 4.4 1.7 -0.2 2.3 -1 2.3 -2.8z"/>
  <path d="M78.1 154.7 c-3.3 -2 -5 -5.5 -5.1 -10.4 -0.1 -11.6 16.2 -15.5 21.6 -5.2 2.1 4.2 1.1 10.8 -2.1 13.9 -3 2.8 -10.8 3.7 -14.4 1.7z"/>
  <path d="M76.6 115.8 c-1 -9 -4.6 -62 -4.6 -67.4 0 -3.8 0.4 -5.3 1.6 -5.8 3 -1.2 20 -0.6 21.7 0.7 1.7 1.2 1.7 2.9 -0.2 32.2 -1.2 17.1 -2.3 34.3 -2.7 38.3 l-0.6 7.2 -7.3 0 -7.4 0 -0.5 -5.2z"/>
  <path d="M161.3 50.5 c0 -2.2 0.2 -3 0.4 -1.7 0.2 1.2 0.2 3 0 4 -0.3 0.9 -0.5 -0.1 -0.4 -2.3z"/>
  <path d="M6.2 49 c0 -1.9 0.2 -2.7 0.5 -1.7 0.2 0.9 0.2 2.5 0 3.5 -0.3 0.9 -0.5 0.1 -0.5 -1.8z"/>
 </g>
</svg>